# xmcd
#
# Track frame offsets:
#	182
#	18692
#	37782
#	56700
#	73815
#	91885
#	110672
#	130462
#	148702
#	167315
#
# Disc length: 2505 seconds
#
# Revision: 4
# Processed by: cddbd v1.5.2PL0 Copyright (c) Steve Scherf et al.
# Submitted via: EasyCDDAExtractor 15.3.0.1
#
DISCID=8a09c70a
DTITLE=Gisselle
DYEAR=1995
DGENRE=Latin
TTITLE0=Ya Se Que Es El Final
TTITLE1=Perfume De Mujer En Tu Camisa
TTITLE2=Pesadilla
TTITLE3=Lo Mio Es Mio
TTITLE4=Castigo De Mi Soledad
TTITLE5=Como Tu Aprendere
TTITLE6=Esa No Es Mejor Que Yo
TTITLE7=Lastima
TTITLE8=La Amante
TTITLE9=Se Fue
EXTD=
EXTT0=
EXTT1=
EXTT2=
EXTT3=
EXTT4=
EXTT5=
EXTT6=
EXTT7=
EXTT8=
EXTT9=
PLAYORDER=
